<svg width="20" height="20" viewBox="0 0 20 20" fill="none" xmlns="http://www.w3.org/2000/svg">
<path d="M12.604 17.5833L5.58317 10.5833C5.49984 10.5 5.44095 10.4097 5.4065 10.3125C5.3715 10.2153 5.354 10.1111 5.354 9.99999C5.354 9.88888 5.3715 9.78471 5.4065 9.68749C5.44095 9.59027 5.49984 9.49999 5.58317 9.41666L12.604 2.39582C12.7984 2.20138 13.0415 2.10416 13.3332 2.10416C13.6248 2.10416 13.8748 2.20832 14.0832 2.41666C14.2915 2.62499 14.3957 2.86805 14.3957 3.14582C14.3957 3.4236 14.2915 3.66666 14.0832 3.87499L7.95817 9.99999L14.0832 16.125C14.2776 16.3194 14.3748 16.5589 14.3748 16.8433C14.3748 17.1283 14.2707 17.375 14.0623 17.5833C13.854 17.7917 13.6109 17.8958 13.3332 17.8958C13.0554 17.8958 12.8123 17.7917 12.604 17.5833Z" fill="white"/>
</svg>
