<svg width="24" height="24" viewBox="0 0 24 24" fill="none" xmlns="http://www.w3.org/2000/svg">
<path d="M19.617 6.57895C20.139 6.57895 20.562 6.75789 20.895 7.10684C21.237 7.47368 21.417 7.87632 21.417 8.36842V18.2105C21.417 18.7026 21.237 19.1053 20.895 19.4721C20.562 19.8211 20.139 20 19.617 20H5.21699C4.69499 20 4.27199 19.8211 3.93899 19.4721C3.59699 19.1053 3.41699 18.7026 3.41699 18.2105V8.36842C3.41699 7.87632 3.59699 7.47368 3.93899 7.10684C4.27199 6.75789 4.69499 6.57895 5.21699 6.57895H8.81699V4.78947C8.81699 4.27053 8.99699 3.85 9.33899 3.51895C9.67199 3.17895 10.095 3 10.617 3H14.217C14.739 3 15.162 3.17895 15.495 3.51895C15.837 3.85 16.017 4.27053 16.017 4.78947V6.57895H19.617ZM5.21699 8.36842V18.2105H19.617V8.36842H5.21699ZM14.217 6.57895V4.78947H10.617V6.57895H14.217ZM12.417 9.26316C12.9541 9.26316 13.4691 9.47526 13.8489 9.8528C14.2286 10.2303 14.442 10.7424 14.442 11.2763C14.442 12.3947 13.533 13.2895 12.417 13.2895C11.8799 13.2895 11.3649 13.0774 10.9851 12.6998C10.6053 12.3223 10.392 11.8102 10.392 11.2763C10.392 10.1579 11.301 9.26316 12.417 9.26316ZM16.467 17.3158H8.36699V16.3137C8.36699 15.1953 10.167 14.3005 12.417 14.3005C14.667 14.3005 16.467 15.1953 16.467 16.3137V17.3158Z" fill="white"/>
</svg>
