<svg width="20" height="20" viewBox="0 0 20 20" fill="none" xmlns="http://www.w3.org/2000/svg">
<path d="M11.6668 3.33334H16.6668V8.33334H11.6668V3.33334ZM3.3335 11.6667H8.3335V16.6667H3.3335V11.6667ZM11.6668 14.1667C11.6668 14.8297 11.9302 15.4656 12.3991 15.9344C12.8679 16.4033 13.5038 16.6667 14.1668 16.6667C14.8299 16.6667 15.4658 16.4033 15.9346 15.9344C16.4034 15.4656 16.6668 14.8297 16.6668 14.1667C16.6668 13.5036 16.4034 12.8678 15.9346 12.3989C15.4658 11.9301 14.8299 11.6667 14.1668 11.6667C13.5038 11.6667 12.8679 11.9301 12.3991 12.3989C11.9302 12.8678 11.6668 13.5036 11.6668 14.1667ZM3.3335 5.83334C3.3335 6.16165 3.39816 6.48674 3.5238 6.79005C3.64943 7.09337 3.83358 7.36896 4.06573 7.60111C4.29788 7.83326 4.57347 8.01741 4.87679 8.14304C5.1801 8.26868 5.50519 8.33334 5.8335 8.33334C6.1618 8.33334 6.48689 8.26868 6.7902 8.14304C7.09352 8.01741 7.36912 7.83326 7.60126 7.60111C7.83341 7.36896 8.01756 7.09337 8.1432 6.79005C8.26883 6.48674 8.3335 6.16165 8.3335 5.83334C8.3335 5.50504 8.26883 5.17995 8.1432 4.87663C8.01756 4.57332 7.83341 4.29772 7.60126 4.06558C7.36912 3.83343 7.09352 3.64928 6.7902 3.52364C6.48689 3.39801 6.1618 3.33334 5.8335 3.33334C5.50519 3.33334 5.1801 3.39801 4.87679 3.52364C4.57347 3.64928 4.29788 3.83343 4.06573 4.06558C3.83358 4.29772 3.64943 4.57332 3.5238 4.87663C3.39816 5.17995 3.3335 5.50504 3.3335 5.83334Z" fill="white" stroke="white" stroke-width="1.5" stroke-linecap="round" stroke-linejoin="round"/>
</svg>
