<svg width="24" height="24" viewBox="0 0 24 24" fill="none" xmlns="http://www.w3.org/2000/svg">
<path d="M18.3 4C19.0161 4 19.7028 4.28654 20.2092 4.79657C20.7155 5.30661 21 5.99837 21 6.71967V15.7853C21 16.5066 20.7155 17.1983 20.2092 17.7084C19.7028 18.2184 19.0161 18.5049 18.3 18.5049H7.7997L4.8 20.7713C4.0584 21.3316 3 20.7985 3 19.8648V6.71967C3 5.99837 3.28446 5.30661 3.79081 4.79657C4.29716 4.28654 4.98392 4 5.7 4H18.3ZM18.3 5.81312H5.7C5.46131 5.81312 5.23239 5.90863 5.0636 6.07864C4.89482 6.24865 4.8 6.47924 4.8 6.71967V18.5049L6.7197 17.0544C7.03127 16.8191 7.41023 16.6918 7.7997 16.6918H18.3C18.5387 16.6918 18.7676 16.5963 18.9364 16.4263C19.1052 16.2563 19.2 16.0257 19.2 15.7853V6.71967C19.2 6.47924 19.1052 6.24865 18.9364 6.07864C18.7676 5.90863 18.5387 5.81312 18.3 5.81312ZM11.1 12.159C11.3294 12.1593 11.55 12.2478 11.7168 12.4064C11.8836 12.565 11.984 12.7818 11.9975 13.0125C12.0109 13.2431 11.9364 13.4702 11.7892 13.6474C11.6419 13.8246 11.4331 13.9385 11.2053 13.9658L11.1 13.9721H8.4C8.17061 13.9719 7.94997 13.8834 7.78317 13.7248C7.61637 13.5662 7.51599 13.3494 7.50255 13.1187C7.4891 12.888 7.56361 12.6609 7.71084 12.4837C7.85807 12.3065 8.06691 12.1927 8.2947 12.1654L8.4 12.159H11.1ZM15.6 8.53279C15.8387 8.53279 16.0676 8.6283 16.2364 8.79832C16.4052 8.96833 16.5 9.19891 16.5 9.43935C16.5 9.67978 16.4052 9.91037 16.2364 10.0804C16.0676 10.2504 15.8387 10.3459 15.6 10.3459H8.4C8.16131 10.3459 7.93239 10.2504 7.7636 10.0804C7.59482 9.91037 7.5 9.67978 7.5 9.43935C7.5 9.19891 7.59482 8.96833 7.7636 8.79832C7.93239 8.6283 8.16131 8.53279 8.4 8.53279H15.6Z" fill="white"/>
</svg>
