<svg width="16" height="16" viewBox="0 0 16 16" fill="none" xmlns="http://www.w3.org/2000/svg">
<path fill-rule="evenodd" clip-rule="evenodd" d="M5.54467 1.36236C4.98526 1.46945 4.57776 1.6827 4.15701 2.08858C3.82433 2.4095 3.57697 2.79479 3.47114 3.15695C3.39402 3.42082 3.39649 3.42512 3.63727 3.44769C3.88017 3.47045 4.30215 3.44605 4.61795 3.39094C5.18581 3.29187 5.75912 3.05148 6.16227 2.7434C6.54281 2.45258 6.5525 2.4467 6.65006 2.4467C6.78515 2.4467 6.83443 2.48227 6.96408 2.67331C7.15696 2.95756 7.4197 3.19505 7.68915 3.32866C7.92638 3.44632 7.92676 3.4464 8.23432 3.4464C8.40358 3.4464 8.5499 3.4386 8.55945 3.42909C8.59619 3.39245 8.48581 3.03231 8.36783 2.80374C8.02326 2.13624 7.35162 1.59152 6.6442 1.40582C6.35994 1.33119 5.81913 1.30982 5.54467 1.36236ZM6.40519 3.29448C5.7108 3.79039 4.78929 4.05143 3.80596 4.03081L3.36605 4.02158L3.37938 4.25474C3.39629 4.55115 3.53257 4.96119 3.71839 5.2748C3.89953 5.58049 4.32143 6.00623 4.62893 6.1936C5.22539 6.55703 5.98266 6.67212 6.6442 6.49992C7.65521 6.23674 8.48116 5.31134 8.6035 4.30481C8.61959 4.17225 8.626 4.0528 8.61773 4.03938C8.60919 4.02555 8.55214 4.02481 8.48576 4.03766C7.92446 4.14625 7.18504 3.83985 6.71264 3.30288L6.58945 3.16287L6.40519 3.29448ZM3.00336 7.81299C2.71869 7.88541 2.53588 7.96687 2.28773 8.13191C1.94787 8.35793 1.69983 8.64962 1.52482 9.02902C1.33314 9.44457 1.3335 9.4412 1.3335 10.86C1.3335 12.1142 1.33459 12.1399 1.39076 12.2158C1.42227 12.2583 1.48877 12.3209 1.53853 12.3548L1.62903 12.4164H4.38603H7.14305L7.15803 11.8891C7.17571 11.2668 7.21831 11.0664 7.4133 10.6887C7.56753 10.3899 7.85729 10.0683 8.14434 9.87743C8.34412 9.74454 8.72066 9.58762 8.91631 9.55574C9.02252 9.53841 9.02895 9.53101 9.13071 9.30938C9.26438 9.01826 9.52556 8.69238 9.77897 8.50063L9.97686 8.35086L9.88458 8.27168C9.62904 8.0524 9.31937 7.89669 8.97418 7.81387C8.76139 7.76284 8.63511 7.76068 5.97352 7.76243C3.40322 7.7641 3.18061 7.76791 3.00336 7.81299ZM10.8325 9.24956C10.5272 9.34835 10.3109 9.53509 10.1784 9.81441C10.101 9.97746 10.0931 10.0207 10.084 10.328L10.0741 10.6635H9.69742C9.49022 10.6635 9.25436 10.676 9.17325 10.6913C9.00158 10.7236 8.76594 10.836 8.68184 10.9256L8.62312 10.9881L8.74234 11.0488C8.8079 11.0822 9.53038 11.4589 10.3478 11.886L11.8341 12.6624L13.4138 11.838C14.2826 11.3846 15.0036 11.0042 15.016 10.9927C15.0513 10.9599 14.8444 10.8052 14.6787 10.7406C14.5518 10.6912 14.4543 10.68 14.0591 10.6697L13.5901 10.6574L13.579 10.3249C13.569 10.0236 13.5601 9.97576 13.4842 9.81441C13.3757 9.58374 13.2128 9.41956 12.9858 9.31195L12.8035 9.22554L11.8728 9.21984C11.1731 9.21557 10.9149 9.22294 10.8325 9.24956ZM12.6576 10.1336C12.699 10.171 12.7077 10.2213 12.7077 10.4212V10.6635H11.8317H10.9557V10.426C10.9557 10.0648 10.8951 10.0883 11.827 10.0883C12.5149 10.0883 12.6135 10.0937 12.6576 10.1336ZM8.33364 13.2038L8.34144 14.5664L8.42616 14.7445C8.5338 14.9707 8.70385 15.1409 8.92999 15.2486L9.10793 15.3333H11.8317H14.5555L14.7378 15.2469C14.9642 15.1396 15.127 14.9758 15.2372 14.7445L15.322 14.5664L15.3301 13.2004C15.3377 11.8962 15.3359 11.8353 15.289 11.8532C15.262 11.8635 14.5069 12.256 13.6111 12.7254C12.0433 13.5469 11.9766 13.5788 11.8317 13.5781C11.6877 13.5774 11.6088 13.5395 10.025 12.7095C9.11409 12.2321 8.35915 11.8415 8.34732 11.8414C8.3355 11.8413 8.32934 12.4544 8.33364 13.2038Z" fill="white"/>
</svg>
