<svg width="16" height="16" viewBox="0 0 16 16" fill="none" xmlns="http://www.w3.org/2000/svg">
<path d="M15 7H14.325L12.5875 3.09375C12.5097 2.91674 12.3819 2.76627 12.2198 2.66081C12.0577 2.55534 11.8684 2.49946 11.675 2.5H4.325C4.13163 2.49946 3.94229 2.55534 3.78021 2.66081C3.61813 2.76627 3.49034 2.91674 3.4125 3.09375L1.675 7H1C0.867392 7 0.740215 7.05268 0.646447 7.14645C0.552678 7.24022 0.5 7.3674 0.5 7.5C0.5 7.63261 0.552678 7.75979 0.646447 7.85356C0.740215 7.94733 0.867392 8 1 8H1.5V13C1.5 13.2652 1.60536 13.5196 1.79289 13.7071C1.98043 13.8946 2.23478 14 2.5 14H4C4.26522 14 4.51957 13.8946 4.70711 13.7071C4.89464 13.5196 5 13.2652 5 13V12H11V13C11 13.2652 11.1054 13.5196 11.2929 13.7071C11.4804 13.8946 11.7348 14 12 14H13.5C13.7652 14 14.0196 13.8946 14.2071 13.7071C14.3946 13.5196 14.5 13.2652 14.5 13V8H15C15.1326 8 15.2598 7.94733 15.3536 7.85356C15.4473 7.75979 15.5 7.63261 15.5 7.5C15.5 7.3674 15.4473 7.24022 15.3536 7.14645C15.2598 7.05268 15.1326 7 15 7ZM4.325 3.5H11.675L13.2312 7H2.76875L4.325 3.5ZM4 13H2.5V12H4V13ZM12 13V12H13.5V13H12ZM13.5 11H2.5V8H13.5V11Z" fill="white"/>
<path d="M4 10H5C5.13261 10 5.25979 9.94732 5.35355 9.85355C5.44732 9.75979 5.5 9.63261 5.5 9.5C5.5 9.36739 5.44732 9.24021 5.35355 9.14645C5.25979 9.05268 5.13261 9 5 9H4C3.86739 9 3.74021 9.05268 3.64645 9.14645C3.55268 9.24021 3.5 9.36739 3.5 9.5C3.5 9.63261 3.55268 9.75979 3.64645 9.85355C3.74021 9.94732 3.86739 10 4 10ZM11 10H12C12.1326 10 12.2598 9.94732 12.3536 9.85355C12.4473 9.75979 12.5 9.63261 12.5 9.5C12.5 9.36739 12.4473 9.24021 12.3536 9.14645C12.2598 9.05268 12.1326 9 12 9H11C10.8674 9 10.7402 9.05268 10.6464 9.14645C10.5527 9.24021 10.5 9.36739 10.5 9.5C10.5 9.63261 10.5527 9.75979 10.6464 9.85355C10.7402 9.94732 10.8674 10 11 10Z" fill="white"/>
</svg>
