<svg width="20" height="20" viewBox="0 0 20 20" fill="none" xmlns="http://www.w3.org/2000/svg">
<mask id="path-1-inside-1_202_1036" fill="white">
<path d="M16.875 13.8381V11.25C16.875 10.9185 16.7433 10.6005 16.5089 10.3661C16.2745 10.1317 15.9565 10 15.625 10H10.625V7.5H11.875C12.2064 7.49967 12.5242 7.36787 12.7585 7.13352C12.9929 6.89917 13.1247 6.58142 13.125 6.25V2.5C13.1247 2.16858 12.9929 1.85083 12.7585 1.61648C12.5242 1.38213 12.2064 1.25033 11.875 1.25H8.12501C7.79359 1.25033 7.47584 1.38213 7.24149 1.61648C7.00714 1.85083 6.87534 2.16858 6.87501 2.5V6.25C6.87534 6.58142 7.00714 6.89917 7.24149 7.13352C7.47584 7.36787 7.79359 7.49967 8.12501 7.5H9.37501V10H4.37501C4.04349 10 3.72554 10.1317 3.49112 10.3661C3.2567 10.6005 3.12501 10.9185 3.12501 11.25V13.8388C2.53584 13.9909 2.02239 14.3526 1.68088 14.8563C1.33937 15.3599 1.19326 15.9707 1.26993 16.5744C1.3466 17.178 1.64079 17.733 2.09736 18.1352C2.55393 18.5374 3.14152 18.7594 3.75001 18.7594C4.35849 18.7594 4.94609 18.5374 5.40265 18.1352C5.85922 17.733 6.15341 17.178 6.23008 16.5744C6.30675 15.9707 6.16064 15.3599 5.81913 14.8563C5.47762 14.3526 4.96417 13.9909 4.37501 13.8388V11.25H9.37501V13.8388C8.78584 13.9909 8.27239 14.3526 7.93088 14.8563C7.58937 15.3599 7.44326 15.9707 7.51993 16.5744C7.5966 17.178 7.89079 17.733 8.34736 18.1352C8.80393 18.5374 9.39152 18.7594 10 18.7594C10.6085 18.7594 11.1961 18.5374 11.6527 18.1352C12.1092 17.733 12.4034 17.178 12.4801 16.5744C12.5568 15.9707 12.4106 15.3599 12.0691 14.8563C11.7276 14.3526 11.2142 13.9909 10.625 13.8388V11.25H15.625V13.8381C15.0358 13.9902 14.5224 14.352 14.1809 14.8556C13.8394 15.3592 13.6933 15.9701 13.7699 16.5737C13.8466 17.1774 14.1408 17.7323 14.5974 18.1346C15.0539 18.5368 15.6415 18.7587 16.25 18.7587C16.8585 18.7587 17.4461 18.5368 17.9027 18.1346C18.3592 17.7323 18.6534 17.1774 18.7301 16.5737C18.8068 15.9701 18.6606 15.3592 18.3191 14.8556C17.9776 14.352 17.4642 13.9902 16.875 13.8381ZM8.12501 2.5H11.875L11.8756 6.25H8.12501V2.5ZM5.00001 16.25C5.00001 16.4972 4.92669 16.7389 4.78934 16.9445C4.65199 17.15 4.45677 17.3102 4.22836 17.4048C3.99995 17.4995 3.74862 17.5242 3.50614 17.476C3.26367 17.4278 3.04094 17.3087 2.86612 17.1339C2.69131 16.9591 2.57226 16.7363 2.52402 16.4939C2.47579 16.2514 2.50055 16.0001 2.59516 15.7716C2.68977 15.5432 2.84998 15.348 3.05554 15.2107C3.2611 15.0733 3.50278 15 3.75001 15C4.08142 15.0003 4.39918 15.1321 4.63352 15.3665C4.86787 15.6008 4.99968 15.9186 5.00001 16.25ZM11.25 16.25C11.25 16.4972 11.1767 16.7389 11.0393 16.9445C10.902 17.15 10.7068 17.3102 10.4784 17.4048C10.25 17.4995 9.99862 17.5242 9.75614 17.476C9.51367 17.4278 9.29094 17.3087 9.11612 17.1339C8.94131 16.9591 8.82226 16.7363 8.77402 16.4939C8.72579 16.2514 8.75055 16.0001 8.84516 15.7716C8.93977 15.5432 9.09998 15.348 9.30554 15.2107C9.5111 15.0733 9.75278 15 10 15C10.3314 15.0005 10.649 15.1324 10.8833 15.3667C11.1177 15.601 11.2495 15.9186 11.25 16.25ZM16.25 17.5C16.0028 17.5 15.7611 17.4267 15.5555 17.2893C15.35 17.152 15.1898 16.9568 15.0952 16.7284C15.0005 16.4999 14.9758 16.2486 15.024 16.0061C15.0723 15.7637 15.1913 15.5409 15.3661 15.3661C15.5409 15.1913 15.7637 15.0722 16.0061 15.024C16.2486 14.9758 16.5 15.0005 16.7284 15.0952C16.9568 15.1898 17.152 15.35 17.2893 15.5555C17.4267 15.7611 17.5 16.0028 17.5 16.25C17.4997 16.5814 17.3679 16.8992 17.1335 17.1335C16.8992 17.3679 16.5814 17.4997 16.25 17.5Z"/>
</mask>
<path d="M16.875 13.8381V11.25C16.875 10.9185 16.7433 10.6005 16.5089 10.3661C16.2745 10.1317 15.9565 10 15.625 10H10.625V7.5H11.875C12.2064 7.49967 12.5242 7.36787 12.7585 7.13352C12.9929 6.89917 13.1247 6.58142 13.125 6.25V2.5C13.1247 2.16858 12.9929 1.85083 12.7585 1.61648C12.5242 1.38213 12.2064 1.25033 11.875 1.25H8.12501C7.79359 1.25033 7.47584 1.38213 7.24149 1.61648C7.00714 1.85083 6.87534 2.16858 6.87501 2.5V6.25C6.87534 6.58142 7.00714 6.89917 7.24149 7.13352C7.47584 7.36787 7.79359 7.49967 8.12501 7.5H9.37501V10H4.37501C4.04349 10 3.72554 10.1317 3.49112 10.3661C3.2567 10.6005 3.12501 10.9185 3.12501 11.25V13.8388C2.53584 13.9909 2.02239 14.3526 1.68088 14.8563C1.33937 15.3599 1.19326 15.9707 1.26993 16.5744C1.3466 17.178 1.64079 17.733 2.09736 18.1352C2.55393 18.5374 3.14152 18.7594 3.75001 18.7594C4.35849 18.7594 4.94609 18.5374 5.40265 18.1352C5.85922 17.733 6.15341 17.178 6.23008 16.5744C6.30675 15.9707 6.16064 15.3599 5.81913 14.8563C5.47762 14.3526 4.96417 13.9909 4.37501 13.8388V11.25H9.37501V13.8388C8.78584 13.9909 8.27239 14.3526 7.93088 14.8563C7.58937 15.3599 7.44326 15.9707 7.51993 16.5744C7.5966 17.178 7.89079 17.733 8.34736 18.1352C8.80393 18.5374 9.39152 18.7594 10 18.7594C10.6085 18.7594 11.1961 18.5374 11.6527 18.1352C12.1092 17.733 12.4034 17.178 12.4801 16.5744C12.5568 15.9707 12.4106 15.3599 12.0691 14.8563C11.7276 14.3526 11.2142 13.9909 10.625 13.8388V11.25H15.625V13.8381C15.0358 13.9902 14.5224 14.352 14.1809 14.8556C13.8394 15.3592 13.6933 15.9701 13.7699 16.5737C13.8466 17.1774 14.1408 17.7323 14.5974 18.1346C15.0539 18.5368 15.6415 18.7587 16.25 18.7587C16.8585 18.7587 17.4461 18.5368 17.9027 18.1346C18.3592 17.7323 18.6534 17.1774 18.7301 16.5737C18.8068 15.9701 18.6606 15.3592 18.3191 14.8556C17.9776 14.352 17.4642 13.9902 16.875 13.8381ZM8.12501 2.5H11.875L11.8756 6.25H8.12501V2.5ZM5.00001 16.25C5.00001 16.4972 4.92669 16.7389 4.78934 16.9445C4.65199 17.15 4.45677 17.3102 4.22836 17.4048C3.99995 17.4995 3.74862 17.5242 3.50614 17.476C3.26367 17.4278 3.04094 17.3087 2.86612 17.1339C2.69131 16.9591 2.57226 16.7363 2.52402 16.4939C2.47579 16.2514 2.50055 16.0001 2.59516 15.7716C2.68977 15.5432 2.84998 15.348 3.05554 15.2107C3.2611 15.0733 3.50278 15 3.75001 15C4.08142 15.0003 4.39918 15.1321 4.63352 15.3665C4.86787 15.6008 4.99968 15.9186 5.00001 16.25ZM11.25 16.25C11.25 16.4972 11.1767 16.7389 11.0393 16.9445C10.902 17.15 10.7068 17.3102 10.4784 17.4048C10.25 17.4995 9.99862 17.5242 9.75614 17.476C9.51367 17.4278 9.29094 17.3087 9.11612 17.1339C8.94131 16.9591 8.82226 16.7363 8.77402 16.4939C8.72579 16.2514 8.75055 16.0001 8.84516 15.7716C8.93977 15.5432 9.09998 15.348 9.30554 15.2107C9.5111 15.0733 9.75278 15 10 15C10.3314 15.0005 10.649 15.1324 10.8833 15.3667C11.1177 15.601 11.2495 15.9186 11.25 16.25ZM16.25 17.5C16.0028 17.5 15.7611 17.4267 15.5555 17.2893C15.35 17.152 15.1898 16.9568 15.0952 16.7284C15.0005 16.4999 14.9758 16.2486 15.024 16.0061C15.0723 15.7637 15.1913 15.5409 15.3661 15.3661C15.5409 15.1913 15.7637 15.0722 16.0061 15.024C16.2486 14.9758 16.5 15.0005 16.7284 15.0952C16.9568 15.1898 17.152 15.35 17.2893 15.5555C17.4267 15.7611 17.5 16.0028 17.5 16.25C17.4997 16.5814 17.3679 16.8992 17.1335 17.1335C16.8992 17.3679 16.5814 17.4997 16.25 17.5Z" fill="white"/>
<path d="M16.875 13.8381H15.375V15L16.5 15.2905L16.875 13.8381ZM15.625 10L15.625 11.5L15.625 10ZM10.625 10H9.12501V11.5H10.625V10ZM10.625 7.5V6H9.12501V7.5H10.625ZM11.875 7.5L11.875 9L11.8765 9L11.875 7.5ZM13.125 6.25L14.625 6.2515V6.25H13.125ZM13.125 2.5L14.625 2.5L14.625 2.4985L13.125 2.5ZM11.875 1.25L11.8765 -0.25H11.875V1.25ZM8.12501 1.25L8.12501 -0.250001L8.12351 -0.249999L8.12501 1.25ZM6.87501 2.5L5.37501 2.4985V2.5H6.87501ZM6.87501 6.25L5.37501 6.25L5.37501 6.2515L6.87501 6.25ZM8.12501 7.5L8.12351 9H8.12501V7.5ZM9.37501 7.5H10.875V6H9.37501V7.5ZM9.37501 10V11.5H10.875V10H9.37501ZM4.37501 10V11.5V10ZM3.12501 11.25H1.62501H3.12501ZM3.12501 13.8388L3.50001 15.2911L4.62501 15.0006V13.8388H3.12501ZM4.37501 13.8388H2.87501V15.0006L4.00001 15.2911L4.37501 13.8388ZM4.37501 11.25V9.75H2.87501V11.25H4.37501ZM9.37501 11.25H10.875V9.75H9.37501V11.25ZM9.37501 13.8388L9.75001 15.2911L10.875 15.0006V13.8388H9.37501ZM10.625 13.8388H9.12501V15.0006L10.25 15.2911L10.625 13.8388ZM10.625 11.25V9.75H9.12501V11.25H10.625ZM15.625 11.25H17.125V9.75H15.625V11.25ZM15.625 13.8381L16 15.2905L17.125 15V13.8381H15.625ZM8.12501 2.5V1H6.62501V2.5H8.12501ZM11.875 2.5L13.375 2.49975L13.3748 1H11.875V2.5ZM11.8756 6.25V7.75H13.3759L13.3756 6.24975L11.8756 6.25ZM8.12501 6.25H6.62501V7.75H8.12501V6.25ZM5.00001 16.25L6.50001 16.25L6.50001 16.2485L5.00001 16.25ZM3.75001 15L3.7515 13.5H3.75001V15ZM11.25 16.25L12.75 16.25L12.75 16.2478L11.25 16.25ZM10 15L10.0023 13.5H10V15ZM16.25 17.5L16.25 19L16.2515 19L16.25 17.5ZM17.5 16.25L19 16.2515V16.25H17.5ZM18.375 13.8381V11.25H15.375V13.8381H18.375ZM18.375 11.25C18.375 10.5207 18.0853 9.82118 17.5695 9.30546L15.4482 11.4268C15.4013 11.3799 15.375 11.3163 15.375 11.25H18.375ZM17.5695 9.30546C17.0538 8.78973 16.3544 8.5 15.625 8.5L15.625 11.5C15.5587 11.5 15.4951 11.4737 15.4482 11.4268L17.5695 9.30546ZM15.625 8.5H10.625V11.5H15.625V8.5ZM12.125 10V7.5H9.12501V10H12.125ZM10.625 9H11.875V6H10.625V9ZM11.8765 9C12.6052 8.99927 13.3039 8.70946 13.8192 8.19418L11.6979 6.07286C11.7445 6.02627 11.8076 6.00007 11.8735 6L11.8765 9ZM13.8192 8.19418C14.3345 7.67889 14.6243 6.98022 14.625 6.2515L11.625 6.2485C11.6251 6.18262 11.6513 6.11945 11.6979 6.07286L13.8192 8.19418ZM14.625 6.25V2.5H11.625V6.25H14.625ZM14.625 2.4985C14.6243 1.76978 14.3345 1.07111 13.8192 0.555822L11.6979 2.67714C11.6513 2.63055 11.6251 2.56738 11.625 2.5015L14.625 2.4985ZM13.8192 0.555822C13.3039 0.040535 12.6052 -0.249272 11.8765 -0.249999L11.8735 2.75C11.8076 2.74993 11.7445 2.72373 11.6979 2.67714L13.8192 0.555822ZM11.875 -0.25H8.12501V2.75H11.875V-0.25ZM8.12351 -0.249999C7.39478 -0.249272 6.69611 0.0405355 6.18083 0.555822L8.30215 2.67714C8.25556 2.72373 8.19239 2.74993 8.1265 2.75L8.12351 -0.249999ZM6.18083 0.555822C5.66554 1.07111 5.37573 1.76978 5.37501 2.4985L8.37501 2.5015C8.37494 2.56738 8.34874 2.63055 8.30215 2.67714L6.18083 0.555822ZM5.37501 2.5V6.25H8.37501V2.5H5.37501ZM5.37501 6.2515C5.37573 6.98022 5.66554 7.67889 6.18083 8.19418L8.30215 6.07286C8.34874 6.11945 8.37494 6.18262 8.37501 6.2485L5.37501 6.2515ZM6.18083 8.19418C6.69611 8.70946 7.39478 8.99927 8.12351 9L8.1265 6C8.19239 6.00007 8.25556 6.02627 8.30215 6.07286L6.18083 8.19418ZM8.12501 9H9.37501V6H8.12501V9ZM7.87501 7.5V10H10.875V7.5H7.87501ZM9.37501 8.5H4.37501V11.5H9.37501V8.5ZM4.37501 8.5C3.64566 8.5 2.94619 8.78973 2.43046 9.30546L4.55178 11.4268C4.5049 11.4737 4.44131 11.5 4.37501 11.5L4.37501 8.5ZM2.43046 9.30546C1.91474 9.82118 1.62501 10.5207 1.62501 11.25L4.62501 11.25C4.62501 11.3163 4.59867 11.3799 4.55178 11.4268L2.43046 9.30546ZM1.62501 11.25V13.8388H4.62501V11.25H1.62501ZM2.75001 12.3864C1.80735 12.6298 0.985816 13.2086 0.439404 14.0144L2.92236 15.6981C3.05896 15.4967 3.26434 15.352 3.50001 15.2911L2.75001 12.3864ZM0.439404 14.0144C-0.107008 14.8202 -0.340787 15.7976 -0.218113 16.7634L2.75798 16.3854C2.72731 16.1439 2.78575 15.8996 2.92236 15.6981L0.439404 14.0144ZM-0.218113 16.7634C-0.0954382 17.7292 0.375268 18.6171 1.10577 19.2607L3.08895 17.0097C2.90632 16.8488 2.78864 16.6268 2.75798 16.3854L-0.218113 16.7634ZM1.10577 19.2607C1.83628 19.9043 2.77643 20.2594 3.75001 20.2594V17.2594C3.50661 17.2594 3.27158 17.1706 3.08895 17.0097L1.10577 19.2607ZM3.75001 20.2594C4.72358 20.2594 5.66373 19.9043 6.39424 19.2607L4.41106 17.0097C4.22844 17.1706 3.9934 17.2594 3.75001 17.2594V20.2594ZM6.39424 19.2607C7.12474 18.6171 7.59545 17.7292 7.71812 16.7634L4.74204 16.3854C4.71137 16.6268 4.59369 16.8488 4.41106 17.0097L6.39424 19.2607ZM7.71812 16.7634C7.8408 15.7976 7.60702 14.8202 7.06061 14.0144L4.57766 15.6981C4.71426 15.8996 4.7727 16.1439 4.74204 16.3854L7.71812 16.7634ZM7.06061 14.0144C6.5142 13.2086 5.69266 12.6298 4.75001 12.3864L4.00001 15.2911C4.23567 15.352 4.44105 15.4967 4.57766 15.6981L7.06061 14.0144ZM5.87501 13.8388V11.25H2.87501V13.8388H5.87501ZM4.37501 12.75H9.37501V9.75H4.37501V12.75ZM7.87501 11.25V13.8388H10.875V11.25H7.87501ZM9.00001 12.3864C8.05735 12.6298 7.23582 13.2086 6.6894 14.0144L9.17236 15.6981C9.30896 15.4967 9.51434 15.352 9.75001 15.2911L9.00001 12.3864ZM6.6894 14.0144C6.14299 14.8202 5.90921 15.7976 6.03189 16.7634L9.00798 16.3854C8.97731 16.1439 9.03575 15.8996 9.17236 15.6981L6.6894 14.0144ZM6.03189 16.7634C6.15456 17.7292 6.62527 18.6171 7.35577 19.2607L9.33895 17.0097C9.15632 16.8488 9.03864 16.6268 9.00798 16.3854L6.03189 16.7634ZM7.35577 19.2607C8.08628 19.9043 9.02643 20.2594 10 20.2594V17.2594C9.75661 17.2594 9.52158 17.1706 9.33895 17.0097L7.35577 19.2607ZM10 20.2594C10.9736 20.2594 11.9137 19.9043 12.6442 19.2607L10.6611 17.0097C10.4784 17.1706 10.2434 17.2594 10 17.2594V20.2594ZM12.6442 19.2607C13.3747 18.6171 13.8455 17.7292 13.9681 16.7634L10.992 16.3854C10.9614 16.6268 10.8437 16.8488 10.6611 17.0097L12.6442 19.2607ZM13.9681 16.7634C14.0908 15.7976 13.857 14.8202 13.3106 14.0144L10.8277 15.6981C10.9643 15.8996 11.0227 16.1439 10.992 16.3854L13.9681 16.7634ZM13.3106 14.0144C12.7642 13.2086 11.9427 12.6298 11 12.3864L10.25 15.2911C10.4857 15.352 10.6911 15.4967 10.8277 15.6981L13.3106 14.0144ZM12.125 13.8388V11.25H9.12501V13.8388H12.125ZM10.625 12.75H15.625V9.75H10.625V12.75ZM14.125 11.25V13.8381H17.125V11.25H14.125ZM15.25 12.3858C14.3073 12.6292 13.4858 13.208 12.9394 14.0138L15.4224 15.6975C15.559 15.4961 15.7643 15.3513 16 15.2905L15.25 12.3858ZM12.9394 14.0138C12.393 14.8195 12.1592 15.7969 12.2819 16.7628L15.258 16.3847C15.2273 16.1433 15.2858 15.8989 15.4224 15.6975L12.9394 14.0138ZM12.2819 16.7628C12.4046 17.7286 12.8753 18.6165 13.6058 19.2601L15.5889 17.0091C15.4063 16.8482 15.2886 16.6262 15.258 16.3847L12.2819 16.7628ZM13.6058 19.2601C14.3363 19.9037 15.2764 20.2587 16.25 20.2587V17.2587C16.0066 17.2587 15.7716 17.17 15.5889 17.0091L13.6058 19.2601ZM16.25 20.2587C17.2236 20.2587 18.1637 19.9037 18.8942 19.2601L16.9111 17.0091C16.7284 17.17 16.4934 17.2587 16.25 17.2587V20.2587ZM18.8942 19.2601C19.6247 18.6165 20.0955 17.7286 20.2181 16.7628L17.242 16.3847C17.2114 16.6262 17.0937 16.8482 16.9111 17.0091L18.8942 19.2601ZM20.2181 16.7628C20.3408 15.7969 20.107 14.8195 19.5606 14.0138L17.0777 15.6975C17.2143 15.8989 17.2727 16.1433 17.242 16.3847L20.2181 16.7628ZM19.5606 14.0138C19.0142 13.208 18.1927 12.6292 17.25 12.3858L16.5 15.2905C16.7357 15.3513 16.9411 15.4961 17.0777 15.6975L19.5606 14.0138ZM8.12501 4H11.875V1H8.12501V4ZM10.375 2.50025L10.3756 6.25025L13.3756 6.24975L13.375 2.49975L10.375 2.50025ZM11.8756 4.75H8.12501V7.75H11.8756V4.75ZM9.62501 6.25V2.5H6.62501V6.25H9.62501ZM3.50001 16.25C3.50001 16.2006 3.51467 16.1522 3.54214 16.1111L6.03655 17.7778C6.33872 17.3256 6.50001 16.7939 6.50001 16.25H3.50001ZM3.54214 16.1111C3.56961 16.07 3.60865 16.038 3.65434 16.019L4.80239 18.7907C5.30488 18.5825 5.73437 18.2301 6.03655 17.7778L3.54214 16.1111ZM3.65434 16.019C3.70002 16.0001 3.75028 15.9952 3.79878 16.0048L3.21351 18.9472C3.74696 19.0533 4.29989 18.9988 4.80239 18.7907L3.65434 16.019ZM3.79878 16.0048C3.84727 16.0145 3.89182 16.0383 3.92678 16.0732L1.80546 18.1945C2.19006 18.5791 2.68006 18.8411 3.21351 18.9472L3.79878 16.0048ZM3.92678 16.0732C3.96175 16.1082 3.98556 16.1527 3.9952 16.2012L1.05285 16.7865C1.15896 17.3199 1.42087 17.8099 1.80546 18.1945L3.92678 16.0732ZM3.9952 16.2012C4.00485 16.2497 3.9999 16.3 3.98098 16.3457L1.20934 15.1976C1.0012 15.7001 0.946737 16.2531 1.05285 16.7865L3.9952 16.2012ZM3.98098 16.3457C3.96205 16.3914 3.93001 16.4304 3.8889 16.4579L2.22219 13.9635C1.76995 14.2656 1.41748 14.6951 1.20934 15.1976L3.98098 16.3457ZM3.8889 16.4579C3.84779 16.4853 3.79945 16.5 3.75001 16.5V13.5C3.20611 13.5 2.67442 13.6613 2.22219 13.9635L3.8889 16.4579ZM3.74851 16.5C3.68262 16.4999 3.61945 16.4737 3.57286 16.4271L5.69418 14.3058C5.1789 13.7905 4.48023 13.5007 3.7515 13.5L3.74851 16.5ZM3.57286 16.4271C3.52627 16.3806 3.50007 16.3174 3.50001 16.2515L6.50001 16.2485C6.49928 15.5198 6.20947 14.8211 5.69418 14.3058L3.57286 16.4271ZM9.75001 16.25C9.75001 16.2006 9.76467 16.1522 9.79214 16.1111L12.2865 17.7778C12.5887 17.3256 12.75 16.7939 12.75 16.25H9.75001ZM9.79214 16.1111C9.81961 16.07 9.85865 16.038 9.90434 16.019L11.0524 18.7907C11.5549 18.5825 11.9844 18.2301 12.2865 17.7778L9.79214 16.1111ZM9.90434 16.019C9.95002 16.0001 10.0003 15.9952 10.0488 16.0048L9.46351 18.9472C9.99696 19.0533 10.5499 18.9988 11.0524 18.7907L9.90434 16.019ZM10.0488 16.0048C10.0973 16.0145 10.1418 16.0383 10.1768 16.0732L8.05546 18.1945C8.44006 18.5791 8.93006 18.841 9.46351 18.9472L10.0488 16.0048ZM10.1768 16.0732C10.2117 16.1082 10.2356 16.1527 10.2452 16.2012L7.30285 16.7865C7.40896 17.3199 7.67087 17.81 8.05546 18.1945L10.1768 16.0732ZM10.2452 16.2012C10.2548 16.2497 10.2499 16.3 10.231 16.3457L7.45934 15.1976C7.2512 15.7001 7.19674 16.2531 7.30285 16.7865L10.2452 16.2012ZM10.231 16.3457C10.2121 16.3914 10.18 16.4304 10.1389 16.4579L8.47219 13.9635C8.01995 14.2656 7.66748 14.6951 7.45934 15.1976L10.231 16.3457ZM10.1389 16.4579C10.0978 16.4853 10.0495 16.5 10 16.5V13.5C9.45611 13.5 8.92442 13.6613 8.47219 13.9635L10.1389 16.4579ZM9.99776 16.5C9.93208 16.4999 9.86912 16.4738 9.82268 16.4273L11.944 14.306C11.4289 13.7909 10.7307 13.5011 10.0023 13.5L9.99776 16.5ZM9.82268 16.4273C9.77624 16.3809 9.75011 16.3179 9.75001 16.2522L12.75 16.2478C12.7489 15.5193 12.4591 14.8211 11.944 14.306L9.82268 16.4273ZM16.25 16C16.2995 16 16.3478 16.0147 16.3889 16.0421L14.7222 18.5365C15.1744 18.8387 15.7061 19 16.25 19V16ZM16.3889 16.0421C16.43 16.0696 16.4621 16.1086 16.481 16.1543L13.7093 17.3024C13.9175 17.8049 14.27 18.2344 14.7222 18.5365L16.3889 16.0421ZM16.481 16.1543C16.4999 16.2 16.5048 16.2503 16.4952 16.2988L13.5528 15.7135C13.4467 16.2469 13.5012 16.7999 13.7093 17.3024L16.481 16.1543ZM16.4952 16.2988C16.4856 16.3473 16.4617 16.3918 16.4268 16.4268L14.3055 14.3055C13.9209 14.69 13.659 15.1801 13.5528 15.7135L16.4952 16.2988ZM16.4268 16.4268C16.3918 16.4617 16.3473 16.4855 16.2988 16.4952L15.7135 13.5528C15.1801 13.659 14.6901 13.9209 14.3055 14.3055L16.4268 16.4268ZM16.2988 16.4952C16.2503 16.5048 16.2 16.4999 16.1543 16.481L17.3024 13.7093C16.7999 13.5012 16.247 13.4467 15.7135 13.5528L16.2988 16.4952ZM16.1543 16.481C16.1087 16.462 16.0696 16.43 16.0421 16.3889L18.5365 14.7222C18.2344 14.2699 17.8049 13.9175 17.3024 13.7093L16.1543 16.481ZM16.0421 16.3889C16.0147 16.3478 16 16.2994 16 16.25H19C19 15.7061 18.8387 15.1744 18.5365 14.7222L16.0421 16.3889ZM16 16.2485C16.0001 16.1826 16.0263 16.1194 16.0729 16.0729L18.1942 18.1942C18.7095 17.6789 18.9993 16.9802 19 16.2515L16 16.2485ZM16.0729 16.0729C16.1195 16.0263 16.1826 16.0001 16.2485 16L16.2515 19C16.9802 18.9993 17.6789 18.7095 18.1942 18.1942L16.0729 16.0729Z" fill="white" mask="url(#path-1-inside-1_202_1036)"/>
</svg>
