<svg width="20" height="20" viewBox="0 0 20 20" fill="none" xmlns="http://www.w3.org/2000/svg">
<path d="M10.0002 14.1667C9.84072 14.1667 9.68646 14.138 9.53738 14.0808C9.38751 14.0235 9.26274 13.9472 9.16309 13.8518L3.66234 8.5846C3.44311 8.37467 3.3335 8.1075 3.3335 7.78307C3.3335 7.45864 3.44311 7.19147 3.66234 6.98154C3.88158 6.77162 4.1606 6.66666 4.49942 6.66666C4.83823 6.66666 5.11725 6.77162 5.33649 6.98154L10.0002 11.4472L14.6638 6.98154C14.8831 6.77162 15.1621 6.66666 15.5009 6.66666C15.8397 6.66666 16.1187 6.77162 16.338 6.98154C16.5572 7.19147 16.6668 7.45864 16.6668 7.78307C16.6668 8.1075 16.5572 8.37467 16.338 8.5846L10.8372 13.8518C10.7177 13.9663 10.5881 14.0472 10.4486 14.0945C10.3091 14.1426 10.1596 14.1667 10.0002 14.1667V14.1667Z" fill="white"/>
</svg>
