<svg width="16" height="16" viewBox="0 0 16 16" fill="none" xmlns="http://www.w3.org/2000/svg">
<path d="M2.6 13.3511V14.0889C2.6 14.2421 2.66321 14.3891 2.77574 14.4974C2.88826 14.6058 3.04087 14.6667 3.2 14.6667H3.8C3.95913 14.6667 4.11174 14.6058 4.22426 14.4974C4.33679 14.3891 4.4 14.2421 4.4 14.0889V13.5111H11.6V14.0889C11.6 14.2421 11.6632 14.3891 11.7757 14.4974C11.8883 14.6058 12.0409 14.6667 12.2 14.6667H12.8C12.9591 14.6667 13.1117 14.6058 13.2243 14.4974C13.3368 14.3891 13.4 14.2421 13.4 14.0889V13.3511C13.582 13.2505 13.7333 13.1056 13.8387 12.9308C13.944 12.756 13.9997 12.5576 14 12.3556V10.6222C14 10.1421 13.6958 9.73129 13.2632 9.55622L12.4424 7.18502C12.3233 6.83979 12.0943 6.53947 11.7879 6.32674C11.4814 6.114 11.1132 5.99968 10.7354 6H5.2646C4.88683 5.99968 4.51857 6.114 4.21213 6.32674C3.90569 6.53947 3.67667 6.83979 3.5576 7.18502L2.7368 9.55622C2.51858 9.64423 2.33223 9.79237 2.20114 9.98202C2.07005 10.1717 2.00008 10.3944 2 10.6222V12.3556C2 12.782 2.2424 13.1506 2.6 13.3511ZM4.1 12.3556C3.98177 12.3555 3.86471 12.3331 3.75549 12.2895C3.64628 12.2458 3.54705 12.182 3.46348 12.1014C3.2947 11.9388 3.19992 11.7182 3.2 11.4883C3.20008 11.2584 3.29501 11.0379 3.4639 10.8754C3.6328 10.7128 3.86183 10.6216 4.1006 10.6216C4.33937 10.6217 4.56834 10.7131 4.73712 10.8758C4.9059 11.0384 5.00068 11.259 5.0006 11.4889C5.00052 11.7188 4.90559 11.9393 4.7367 12.1018C4.5678 12.2644 4.33877 12.3556 4.1 12.3556V12.3556ZM11.9 12.3556C11.6612 12.3555 11.4323 12.2641 11.2635 12.1014C11.0947 11.9388 10.9999 11.7182 11 11.4883C11.0001 11.2584 11.095 11.0379 11.2639 10.8754C11.4328 10.7128 11.6618 10.6216 11.9006 10.6216C12.1394 10.6217 12.3683 10.7131 12.5371 10.8758C12.7059 11.0384 12.8007 11.259 12.8006 11.4889C12.8005 11.7188 12.7056 11.9393 12.5367 12.1018C12.3678 12.2644 12.1388 12.3556 11.9 12.3556V12.3556ZM5.2646 7.15556H10.7348C10.8608 7.15553 10.9836 7.19368 11.0858 7.26462C11.188 7.33555 11.2644 7.43566 11.3042 7.55076L11.9678 9.46667H4.0322L4.6952 7.55076C4.7774 7.31445 5.0066 7.15556 5.2646 7.15556V7.15556Z" fill="white"/>
<path d="M14 5.15089V3.91767L8.1896 2.03012C8.06119 1.98823 7.92199 1.99008 7.7948 2.03538L2 4.089V5.33333L8.009 3.2037L14 5.15089Z" fill="white"/>
</svg>
