<svg width="20" height="20" viewBox="0 0 20 20" fill="none" xmlns="http://www.w3.org/2000/svg">
<path d="M10.0002 9.99999C10.4585 9.99999 10.851 9.83666 11.1777 9.50999C11.5038 9.18388 11.6668 8.79166 11.6668 8.33332C11.6668 7.87499 11.5038 7.48249 11.1777 7.15582C10.851 6.82971 10.4585 6.66666 10.0002 6.66666C9.54183 6.66666 9.14961 6.82971 8.8235 7.15582C8.49683 7.48249 8.3335 7.87499 8.3335 8.33332C8.3335 8.79166 8.49683 9.18388 8.8235 9.50999C9.14961 9.83666 9.54183 9.99999 10.0002 9.99999ZM10.0002 18.0208C9.88905 18.0208 9.77794 18 9.66683 17.9583C9.55572 17.9167 9.4585 17.8611 9.37516 17.7917C7.34738 16 5.8335 14.3369 4.8335 12.8025C3.8335 11.2675 3.3335 9.83332 3.3335 8.49999C3.3335 6.41666 4.00377 4.75693 5.34433 3.52082C6.68433 2.28471 8.23627 1.66666 10.0002 1.66666C11.7641 1.66666 13.316 2.28471 14.656 3.52082C15.9966 4.75693 16.6668 6.41666 16.6668 8.49999C16.6668 9.83332 16.1668 11.2675 15.1668 12.8025C14.1668 14.3369 12.6529 16 10.6252 17.7917C10.5418 17.8611 10.4446 17.9167 10.3335 17.9583C10.2224 18 10.1113 18.0208 10.0002 18.0208Z" fill="white"/>
</svg>
