<svg width="18" height="18" viewBox="0 0 18 18" fill="none" xmlns="http://www.w3.org/2000/svg">
<path d="M11.724 3.5925L13.776 2.90775C14.0015 2.83265 14.2416 2.8122 14.4766 2.8481C14.7115 2.884 14.9346 2.97522 15.1274 3.11424C15.3201 3.25326 15.4771 3.4361 15.5854 3.64769C15.6936 3.85929 15.7501 4.09358 15.75 4.33125V13.1685C15.7501 13.4835 15.651 13.7904 15.4669 14.0459C15.2827 14.3014 15.0228 14.4925 14.724 14.592L11.724 15.5918C11.4163 15.6942 11.0837 15.6942 10.776 15.5918L7.224 14.4083C6.91631 14.3058 6.58369 14.3058 6.276 14.4083L4.224 15.0923C3.99844 15.1674 3.75825 15.1878 3.52325 15.1519C3.28824 15.1159 3.06514 15.0247 2.87234 14.8855C2.67954 14.7464 2.52257 14.5635 2.41436 14.3518C2.30616 14.1401 2.24982 13.9057 2.25 13.668V4.8315C2.24987 4.51665 2.34882 4.20974 2.53283 3.95425C2.71684 3.69876 2.97658 3.50766 3.27525 3.408L6.27525 2.40825C6.58317 2.30561 6.91608 2.30561 7.224 2.40825L10.7768 3.59175C11.0844 3.69424 11.4171 3.69424 11.7248 3.59175L11.724 3.5925Z" stroke="white" stroke-linecap="round" stroke-linejoin="round"/>
<path d="M11.25 3.75V15.75M6.75 2.25V14.25" stroke="white" stroke-linejoin="round"/>
</svg>
