<svg width="18" height="18" viewBox="0 0 18 18" fill="none" xmlns="http://www.w3.org/2000/svg">
<path d="M8.93782 14.0664L5.30238 16.3595C5.14178 16.4666 4.97387 16.5124 4.79867 16.4971C4.62347 16.4818 4.47017 16.4207 4.33877 16.3137C4.20736 16.2067 4.10516 16.0731 4.03216 15.9128C3.95916 15.752 3.94456 15.5722 3.98836 15.3735L4.95197 11.0395L1.73263 8.12717C1.58663 7.98959 1.49553 7.83273 1.45932 7.65662C1.42253 7.48112 1.43333 7.30929 1.49173 7.14112C1.55013 6.97296 1.63773 6.83537 1.75453 6.72836C1.87134 6.62135 2.03194 6.55255 2.23634 6.52198L6.48499 6.13214L8.12751 2.05035C8.20051 1.8669 8.31381 1.72931 8.46741 1.63759C8.62042 1.54586 8.77722 1.5 8.93782 1.5C9.09842 1.5 9.25552 1.54586 9.40912 1.63759C9.56213 1.72931 9.67513 1.8669 9.74813 2.05035L11.3907 6.13214L15.6393 6.52198C15.8437 6.55255 16.0043 6.62135 16.1211 6.72836C16.2379 6.83537 16.3255 6.97296 16.3839 7.14112C16.4423 7.30929 16.4534 7.48112 16.4172 7.65662C16.3804 7.83273 16.289 7.98959 16.143 8.12717L12.9237 11.0395L13.8873 15.3735C13.9311 15.5722 13.9165 15.752 13.8435 15.9128C13.7705 16.0731 13.6683 16.2067 13.5369 16.3137C13.4055 16.4207 13.2522 16.4818 13.077 16.4971C12.9018 16.5124 12.7339 16.4666 12.5733 16.3595L8.93782 14.0664Z" fill="white"/>
</svg>
